<?xml version="1.0" encoding="UTF-8"?> <!-- Generator: Adobe Illustrator 26.0.2, SVG Export Plug-In . SVG Version: 6.00 Build 0) --> <svg xmlns="http://www.w3.org/2000/svg" xmlns:xlink="http://www.w3.org/1999/xlink" id="Layer_1" x="0px" y="0px" viewBox="0 0 112 112" style="enable-background:new 0 0 112 112;" xml:space="preserve"> <style type="text/css"> .st0{clip-path:url(#SVGID_00000155114763738014447600000017298722861819602083_);} .st1{fill:url(#SVGID_00000082355025722502708910000008147995236098141370_);} .st2{fill:url(#SVGID_00000122682466615293486790000010482600278206066099_);} .st3{fill:#FFFFFF;} .st4{fill:#D9E1FF;} </style> <g> <defs> <rect id="SVGID_1_" width="112" height="112"></rect> </defs> <clipPath id="SVGID_00000015336917005998257250000010016310201783959464_"> <use xlink:href="#SVGID_1_" style="overflow:visible;"></use> </clipPath> <g style="clip-path:url(#SVGID_00000015336917005998257250000010016310201783959464_);"> <linearGradient id="SVGID_00000014629283973202530790000002388390552520464050_" gradientUnits="userSpaceOnUse" x1="9.094947e-13" y1="114" x2="112" y2="2" gradientTransform="matrix(1 0 0 -1 0 114)"> <stop offset="0" style="stop-color:#833AB4"></stop> <stop offset="0.5" style="stop-color:#FD1D1D"></stop> <stop offset="1" style="stop-color:#FCB045"></stop> </linearGradient> <path style="fill:url(#SVGID_00000014629283973202530790000002388390552520464050_);" d="M72,0H40C17.9,0,0,17.9,0,40v32 c0,22.1,17.9,40,40,40h32c22.1,0,40-17.9,40-40V40C112,17.9,94.1,0,72,0z"></path> <linearGradient id="SVGID_00000003069165536755296280000000602501774384632972_" gradientUnits="userSpaceOnUse" x1="12.3435" y1="122.3713" x2="99.6568" y2="-6.3717" gradientTransform="matrix(1 0 0 -1 0 114)"> <stop offset="0" style="stop-color:#B122E5"></stop> <stop offset="1" style="stop-color:#3700FF"></stop> </linearGradient> <path style="fill:url(#SVGID_00000003069165536755296280000000602501774384632972_);" d="M72,0H40C17.9,0,0,17.9,0,40v32 c0,22.1,17.9,40,40,40h32c22.1,0,40-17.9,40-40V40C112,17.9,94.1,0,72,0z"></path> <path class="st3" d="M58.9,56L58.9,56l-0.2,2.7L56,59l-2.6-0.5L53.1,56l0.5-2.2L56,53l2.3,0.2L58.9,56z"></path> <path class="st3" d="M48.3,60.9c-1.3,1.3-3.1,2.1-5,2.1c-3.9,0-7-3.2-7-7c0-3.9,3.2-7,7-7c2,0,3.8,0.8,5,2.1l4.8,4.9l2.9-3 l-4.7-4.8c-2-2.1-4.9-3.4-8.1-3.4C37,44.7,32,49.8,32,56c0,6.2,5,11.2,11.2,11.2c3.2,0,6-1.3,8.1-3.4L56,59l-2.9-3L48.3,60.9z"></path> <path class="st4" d="M56,59l-4.7,4.8c-2,2.1-4.9,3.4-8.1,3.4C37,67.2,32,62.2,32,56h4.2c0,3.9,3.2,7,7,7c2,0,3.8-0.8,5-2.1 l4.8-4.9L56,59z"></path> <path class="st4" d="M68.8,44.7c-3.2,0-6,1.3-8.1,3.4L56,53l2.9,3l4.8-4.9c1.3-1.3,3.1-2.1,5-2.1c3.9,0,7,3.2,7,7c0,3.9-3.2,7-7,7 c-2,0-3.8-0.8-5-2.1L58.9,56l0,0l0,0L56,59l4.7,4.8c2,2.1,4.9,3.4,8.1,3.4C75,67.2,80,62.2,80,56C80,49.8,75,44.7,68.8,44.7z"></path> <path class="st3" d="M80,56c0,6.2-5,11.2-11.2,11.2c-3.2,0-6-1.3-8.1-3.4L56,59l2.9-3h0l4.8,4.9c1.3,1.3,3.1,2.1,5,2.1 c3.9,0,7-3.2,7-7H80z"></path> </g> </g> </svg> 