<?xml version="1.0" encoding="UTF-8"?> <svg xmlns="http://www.w3.org/2000/svg" width="337" height="122" viewBox="0 0 337 122" fill="none"> <path d="M4.31077 0.950402L8.7378 4.63586V21.2468H32.6689L35.9233 25.3441L32.6583 29.2407H8.7378V45.1229L4.31077 48.7978L0 45.1229V4.62529L4.31077 0.950402ZM17.2537 42.8103H35.5006L38.5542 46.6964L35.2997 50.8043H17.2537L14.3059 47.0134L17.2537 42.8103ZM17.8876 0H35.2892L38.5436 4.0973L35.2892 7.99393H18.0989L14.6229 4.21345L17.8876 0ZM114.87 7.88833L118.768 12.0912L114.87 16.3047H55.9451L52.152 12.0912L55.9451 7.88833H114.87ZM48.993 25.3441L52.6698 22.1866L56.3572 25.3441V29.98C56.3572 37.7625 58.4597 44.1727 67.8315 44.1727H69.7227C78.1434 44.1727 82.7713 38.4913 82.7713 29.6525V25.2385L86.3529 22.081L90.0403 25.1329V29.9694C90.0403 37.8577 92.3543 43.7503 101.409 43.7503H102.983C111.827 43.7503 113.401 37.0129 113.507 29.6525V24.9217L117.089 21.9754L120.871 25.0273V29.7582C120.765 39.9591 118.029 51.6385 103.3 51.6385H101.726C92.9884 51.6385 88.2548 47.7419 86.3635 42.9055C84.1553 47.8476 78.2597 52.1667 70.2614 52.1667H68.3598C53.2085 52.1667 49.1091 43.0215 49.0036 30.1806V25.3441H48.993ZM79.0945 101.492L76.9918 95.8112L82.4649 94.2377L101.726 102.96V84.9765L105.625 81.7134L109.619 84.9765V106.751L116.772 110.014L118.768 115.273L113.19 117.269L79.0945 101.492ZM113.401 63.0962L118.663 65.5145L116.983 70.879L69.617 92.8648L63.9326 90.6579L66.2465 85.1877L113.401 63.0962ZM45.0625 93.076L49.6903 96.8672C49.2677 110.226 37.7934 117.269 24.227 117.269H22.8535C16.1126 117.269 8.23063 114.745 3.18027 109.909L3.69798 104.544L8.6427 103.911C12.3301 107.068 17.4861 109.275 22.3252 109.275H23.8044C32.9649 109.275 40.0122 105.495 40.7518 96.5503L45.0625 93.076ZM40.7412 84.3429C40.3186 75.0818 33.3768 71.4069 23.7938 71.4069H22.3146C16.6303 71.4069 12.3195 73.614 8.63212 76.7713L3.69798 76.1378L3.1697 70.7733C8.22006 65.8312 15.2674 63.5186 22.6422 63.5186H24.1108C37.7934 63.5186 49.2677 70.4672 49.6797 84.026L45.0519 87.7115L40.7412 84.3429Z" fill="#22053D"></path> <path d="M165.016 15.9668H154.049C154.292 18.0999 155.782 19.6733 157.969 19.6733C159.3 19.6733 160.526 19.1453 161.244 18.0682L164.731 18.1632C163.495 20.9088 160.938 22.3556 157.969 22.3556C153.827 22.3556 150.773 19.272 150.773 15.0163C150.773 10.7607 153.764 7.69824 157.874 7.69824C161.614 7.69824 165.005 10.201 165.005 15.9351V15.9668H165.016ZM154.049 13.7175H161.55C161.392 11.9328 159.944 10.3805 157.905 10.3805C155.845 10.3805 154.419 11.7427 154.049 13.7175Z" fill="#22053D"></path> <path d="M176.34 11.8272C175.294 10.8134 173.751 10.3171 172.694 10.3171C171.49 10.3171 170.877 10.9613 170.877 11.616C170.877 12.3869 171.215 12.7565 172.177 13.0944L174.586 13.9286C177.174 14.8263 178.262 16.2413 178.262 17.9731C178.262 20.1907 176.561 22.3556 173.075 22.3556C170.793 22.3556 168.532 21.4263 167.211 20.1696L169.028 17.7936C170.074 18.8391 171.712 19.6099 173.011 19.6099C174.248 19.6099 175.05 19.082 175.05 18.2477C175.05 17.3501 174.617 16.9805 173.075 16.4631L170.761 15.6605C168.817 14.9847 167.739 13.5274 167.739 11.8061C167.739 9.76801 169.503 7.69824 172.832 7.69824C174.469 7.69824 176.656 8.3424 178.114 9.70465L176.34 11.8272Z" fill="#22053D"></path> <path d="M188.238 19.6626C189.844 19.6626 191.08 18.8917 191.788 17.6245L194.44 18.9867C193.331 21.0565 190.89 22.3448 188.238 22.3448C184.097 22.3448 180.863 19.293 180.863 15.0267C180.863 10.7393 184.107 7.6875 188.238 7.6875C190.89 7.6875 193.331 8.98639 194.44 11.0456L191.788 12.4078C191.08 11.1406 189.844 10.3698 188.238 10.3698C185.702 10.3698 183.98 12.3761 183.98 15.0267C183.98 17.6773 185.702 19.6626 188.238 19.6626Z" fill="#22053D"></path> <path d="M204.11 7.69824C208.22 7.69824 211.548 10.7501 211.548 15.0163C211.548 19.272 208.209 22.3556 204.11 22.3556C200 22.3556 196.703 19.272 196.703 15.0163C196.703 10.7501 200 7.69824 204.11 7.69824ZM204.11 10.3805C201.574 10.3805 199.82 12.3552 199.82 15.0058C199.82 17.6563 201.584 19.6628 204.11 19.6628C206.645 19.6628 208.399 17.6563 208.399 15.0058C208.399 12.3552 206.645 10.3805 204.11 10.3805Z" fill="#22053D"></path> <path d="M218.247 0.379883H215.195V21.9751H218.247V0.379883Z" fill="#22053D"></path> <path d="M230.751 12.6298C230.751 11.1514 229.641 10.3805 227.845 10.3805C226.334 10.3805 224.972 11.0246 223.926 11.8589L222.478 9.57794C223.651 8.56417 225.627 7.69824 228.067 7.69824C231.744 7.69824 233.836 9.73632 233.836 12.6931V21.986H230.751V20.5392C229.948 21.8381 228.215 22.3556 226.768 22.3556C223.587 22.3556 221.738 20.5392 221.738 17.9731C221.738 15.2592 223.651 13.7175 226.768 13.7175H229.758C230.466 13.7175 230.751 13.4112 230.751 12.8515V12.6298ZM230.751 16.896V15.6922C230.476 15.9034 229.98 15.9984 229.272 15.9984H227.423C225.785 15.9984 224.95 16.7059 224.95 17.8781C224.95 18.9552 225.753 19.9479 227.423 19.9479C229.145 19.9479 230.751 19.0503 230.751 16.896Z" fill="#22053D"></path> <path d="M154.768 53.5289H151.715V31.9336H154.768V41.6806C155.508 40.2865 157.452 39.2411 159.491 39.2411C163.538 39.2411 166.464 42.293 166.464 46.5486C166.464 50.8043 163.474 53.8985 159.428 53.8985C157.42 53.8985 155.539 52.9165 154.768 51.5225V53.5289ZM154.673 46.5592C154.673 49.2099 156.438 51.2478 158.994 51.2478C161.53 51.2478 163.316 49.2099 163.316 46.5592C163.316 43.9086 161.53 41.9023 158.994 41.9023C156.427 41.9023 154.673 43.9086 154.673 46.5592Z" fill="#22053D"></path> <path d="M177.974 42.3353H176.368C174.392 42.3353 173.093 43.4759 173.093 46.6227V53.5289H170.039V39.6109H173.029V41.8283C173.558 40.2868 174.942 39.3574 176.886 39.3574C177.224 39.3574 177.594 39.3891 177.963 39.4523V42.3353H177.974Z" fill="#22053D"></path> <path d="M184.84 53.5286H181.755V42.145H179.652V39.6106H184.84V53.5286ZM183.118 32.4297C184.322 32.4297 185.305 33.4225 185.305 34.6262C185.305 35.83 184.322 36.7911 183.118 36.7911C181.913 36.7911 180.952 35.83 180.952 34.6262C180.952 33.4119 181.913 32.4297 183.118 32.4297Z" fill="#22053D"></path> <path d="M193.269 34.0039V39.6219H196.544V42.1562H193.269V49.9602C193.269 50.9212 193.977 51.1007 194.684 51.1007C195.762 51.1007 196.565 50.9738 196.565 50.9738V53.5402C196.565 53.5402 195.054 53.6985 193.913 53.6985C192.244 53.6985 190.173 53.3604 190.173 50.6466V42.1562H187.891V39.6219H190.183V34.0039H193.269Z" fill="#22053D"></path> <path d="M207.899 44.1832C207.899 42.7048 206.79 41.9341 204.994 41.9341C203.483 41.9341 202.12 42.5782 201.074 43.4124L199.626 41.1313C200.799 40.1176 202.775 39.2517 205.216 39.2517C208.892 39.2517 210.984 41.2899 210.984 44.2466V53.5395H207.899V52.0926C207.096 53.3915 205.363 53.909 203.916 53.909C200.736 53.909 198.887 52.0926 198.887 49.5265C198.887 46.8127 200.799 45.2709 203.916 45.2709H206.906C207.614 45.2709 207.899 44.9648 207.899 44.405V44.1832ZM203.546 31.9336H207.191L210.128 37.0552H206.98L205.374 34.183L203.768 37.0552H200.651L203.546 31.9336ZM207.899 48.4388V47.2351C207.624 47.4463 207.128 47.5415 206.42 47.5415H204.571C202.933 47.5415 202.099 48.2488 202.099 49.4211C202.099 50.4982 202.902 51.4907 204.571 51.4907C206.293 51.5013 207.899 50.6037 207.899 48.4388Z" fill="#22053D"></path> <path d="M218.335 40.4135C218.335 40.8147 218.335 41.0577 218.304 41.3426C219.476 39.9805 221.082 39.2412 222.847 39.2412C226.122 39.2412 228.034 41.2794 228.034 44.4579V53.529H224.949V44.8909C224.949 42.9161 223.745 41.9868 222.202 41.9868C220.871 41.9868 219.582 42.6626 218.409 44.025V53.529H215.355V39.6107H218.356V40.4135H218.335Z" fill="#22053D"></path> <path d="M236.098 53.5286H233.013V42.145H230.91V39.6106H236.098V53.5286ZM234.365 32.4297C235.569 32.4297 236.552 33.4225 236.552 34.6262C236.552 35.83 235.569 36.7911 234.365 36.7911C233.16 36.7911 232.199 35.83 232.199 34.6262C232.21 33.4119 233.16 32.4297 234.365 32.4297Z" fill="#22053D"></path> <path d="M247.035 51.2155C248.641 51.2155 249.877 50.4444 250.585 49.1773L253.237 50.5396C252.128 52.6093 249.687 53.8976 247.035 53.8976C242.893 53.8976 239.66 50.8457 239.66 46.5795C239.66 42.2921 242.904 39.2402 247.035 39.2402C249.687 39.2402 252.128 40.5391 253.237 42.5985L250.585 43.9605C249.877 42.6934 248.641 41.9226 247.035 41.9226C244.499 41.9226 242.777 43.9288 242.777 46.5795C242.777 49.2301 244.499 51.2155 247.035 51.2155Z" fill="#22053D"></path> <path d="M264.513 44.1835C264.513 42.7051 263.403 41.9343 261.607 41.9343C260.096 41.9343 258.733 42.5785 257.687 43.4127L256.24 41.1318C257.412 40.1179 259.388 39.252 261.829 39.252C265.506 39.252 267.598 41.2902 267.598 44.2469V53.5398H264.513V52.0931C263.71 53.392 261.977 53.9093 260.529 53.9093C257.349 53.9093 255.5 52.0931 255.5 49.5271C255.5 46.813 257.412 45.2712 260.529 45.2712H263.519C264.227 45.2712 264.513 44.9651 264.513 44.4052V44.1835ZM264.513 48.4394V47.2354C264.238 47.4466 263.741 47.5417 263.033 47.5417H261.184C259.547 47.5417 258.712 48.249 258.712 49.4213C258.712 50.4985 259.515 51.491 261.184 51.491C262.906 51.5016 264.513 50.6042 264.513 48.4394Z" fill="#22053D"></path> <path d="M289.955 51.4906C289.215 52.8846 287.333 53.8983 285.295 53.8983C281.25 53.8983 278.289 50.8147 278.289 46.5485C278.289 42.2928 281.195 39.241 285.232 39.241C287.303 39.241 289.215 40.2864 289.987 41.6804C289.955 40.7299 289.955 39.5788 289.955 38.5016V31.9229H293.04V53.5182H289.955V51.4906ZM281.429 46.5591C281.429 49.2097 283.193 51.2477 285.75 51.2477C288.285 51.2477 290.072 49.2097 290.072 46.5591C290.072 43.9084 288.274 41.9022 285.75 41.9022C283.193 41.9022 281.429 43.9084 281.429 46.5591Z" fill="#22053D"></path> <path d="M310.866 47.5206H299.908C300.152 49.6537 301.64 51.2272 303.828 51.2272C305.159 51.2272 306.396 50.6991 307.103 49.622L310.59 49.7171C309.353 52.4627 306.797 53.9093 303.828 53.9093C299.686 53.9093 296.633 50.8257 296.633 46.5701C296.633 42.3144 299.634 39.252 303.733 39.252C307.475 39.252 310.866 41.7548 310.866 47.4888V47.5206ZM299.897 45.2606H307.399C307.241 43.4761 305.794 41.9238 303.755 41.9238C301.694 41.9343 300.268 43.2861 299.897 45.2606Z" fill="#22053D"></path> <path d="M159.606 75.7362C159.606 74.2576 158.497 73.4868 156.701 73.4868C155.19 73.4868 153.827 74.1309 152.781 74.9652L151.333 72.6843C152.506 71.6706 154.482 70.8047 156.923 70.8047C160.599 70.8047 162.692 72.8426 162.692 75.7994V85.0922H159.606V83.635C158.803 84.9339 157.071 85.4512 155.623 85.4512C152.443 85.4512 150.594 83.635 150.594 81.069C150.594 78.3549 152.506 76.8133 155.623 76.8133H158.613C159.321 76.8133 159.606 76.507 159.606 75.9474V75.7362ZM159.606 79.9918V78.7878C159.332 78.999 158.835 79.0942 158.127 79.0942H156.278C154.64 79.0942 153.806 79.8018 153.806 80.9738C153.806 82.0509 154.609 83.0437 156.278 83.0437C158 83.0437 159.606 82.1461 159.606 79.9918Z" fill="#22053D"></path> <path d="M174.985 73.8775H173.38C171.404 73.8775 170.104 75.018 170.104 78.1648V85.0711H167.051V71.1636H170.041V73.3813C170.569 71.8395 171.953 70.9102 173.897 70.9102C174.235 70.9102 174.605 70.9419 174.975 71.0053V73.8775H174.985Z" fill="#22053D"></path> <path d="M182.058 65.5459V71.1636H185.333V73.6982H182.058V81.5019C182.058 82.463 182.766 82.6424 183.473 82.6424C184.551 82.6424 185.354 82.5158 185.354 82.5158V85.0819C185.354 85.0819 183.843 85.2402 182.702 85.2402C181.033 85.2402 178.962 84.9024 178.962 82.1883V73.7088H176.68V71.1742H178.962V65.5565H182.058V65.5459Z" fill="#22053D"></path> <path d="M202.103 79.0635H191.146C191.39 81.1966 192.879 82.7699 195.066 82.7699C196.398 82.7699 197.634 82.242 198.342 81.1649L201.828 81.2598C200.592 84.0056 198.035 85.4523 195.066 85.4523C190.925 85.4523 187.871 82.3686 187.871 78.113C187.871 73.8574 190.872 70.7949 194.971 70.7949C198.711 70.7949 202.103 73.2975 202.103 79.0318V79.0635ZM191.146 76.8141H198.648C198.49 75.0294 197.042 73.477 195.003 73.477C192.932 73.477 191.516 74.8394 191.146 76.8141Z" fill="#22053D"></path> <path d="M213.437 74.9334C212.391 73.9198 210.849 73.4233 209.792 73.4233C208.588 73.4233 207.975 74.0675 207.975 74.7222C207.975 75.4933 208.313 75.8628 209.274 76.2006L211.683 77.0351C214.272 77.9325 215.36 79.3477 215.36 81.0795C215.36 83.2969 213.659 85.4618 210.172 85.4618C207.89 85.4618 205.64 84.5327 204.309 83.2761L206.126 80.9001C207.172 81.9455 208.81 82.7162 210.109 82.7162C211.345 82.7162 212.148 82.1884 212.148 81.3542C212.148 80.4565 211.715 80.0867 210.172 79.5694L207.859 78.7669C205.914 78.0911 204.837 76.6336 204.837 74.9123C204.837 72.8743 206.591 70.8047 209.93 70.8047C211.567 70.8047 213.754 71.4488 215.212 72.8109L213.437 74.9334Z" fill="#22053D"></path> <path d="M232.578 82.7697C234.184 82.7697 235.42 81.999 236.128 80.7318L238.78 82.0939C237.67 84.1638 235.23 85.4521 232.578 85.4521C228.436 85.4521 225.203 82.4002 225.203 78.134C225.203 73.8467 228.447 70.7842 232.578 70.7842C235.23 70.7842 237.67 72.0831 238.78 74.1527L236.128 75.5151C235.42 74.2479 234.184 73.4769 232.578 73.4769C230.042 73.4769 228.32 75.4834 228.32 78.134C228.32 80.7844 230.042 82.7697 232.578 82.7697Z" fill="#22053D"></path> <path d="M250.091 73.8775H248.485C246.509 73.8775 245.21 75.018 245.21 78.1648V85.0711H242.156V71.1636H245.146V73.3813C245.675 71.8395 247.059 70.9102 249.003 70.9102C249.341 70.9102 249.711 70.9419 250.081 71.0053V73.8775H250.091Z" fill="#22053D"></path> <path d="M256.942 85.0822H253.857V73.6985H251.754V71.1642H256.942V85.0822ZM255.209 63.9727C256.413 63.9727 257.396 64.9655 257.396 66.1692C257.396 67.3732 256.413 68.3234 255.209 68.3234C254.004 68.3234 253.043 67.3732 253.043 66.1692C253.054 64.9655 254.004 63.9727 255.209 63.9727Z" fill="#22053D"></path> <path d="M269.364 75.7362C269.364 74.2576 268.255 73.4868 266.458 73.4868C264.947 73.4868 263.585 74.1309 262.539 74.9652L261.091 72.6843C262.264 71.6706 264.24 70.8047 266.68 70.8047C270.357 70.8047 272.45 72.8426 272.45 75.7994V85.0922H269.364V83.635C268.561 84.9339 266.828 85.4512 265.381 85.4512C262.201 85.4512 260.352 83.635 260.352 81.069C260.352 78.3549 262.264 76.8133 265.381 76.8133H268.371C269.079 76.8133 269.364 76.507 269.364 75.9474V75.7362ZM269.364 79.9918V78.7878C269.089 78.999 268.593 79.0942 267.885 79.0942H266.036C264.398 79.0942 263.563 79.8018 263.563 80.9738C263.563 82.0509 264.366 83.0437 266.036 83.0437C267.758 83.0437 269.364 82.1461 269.364 79.9918Z" fill="#22053D"></path> <path d="M280.72 65.5459V71.1636H283.995V73.6982H280.72V81.5019C280.72 82.463 281.428 82.6424 282.135 82.6424C283.214 82.6424 284.017 82.5158 284.017 82.5158V85.0819C284.017 85.0819 282.507 85.2402 281.365 85.2402C279.695 85.2402 277.624 84.9024 277.624 82.1883V73.7088H275.344V71.1742H277.624V65.5565H280.72V65.5459Z" fill="#22053D"></path> <path d="M291.158 85.0822H288.073V73.6985H285.969V71.1642H291.158V85.0822ZM289.425 63.9727C290.629 63.9727 291.613 64.9655 291.613 66.1692C291.613 67.3732 290.629 68.3234 289.425 68.3234C288.222 68.3234 287.259 67.3732 287.259 66.1692C287.27 64.9655 288.222 63.9727 289.425 63.9727Z" fill="#22053D"></path> <path d="M301.256 82.1465L304.986 71.1641H308.262L303.138 85.0824H299.25L294.305 71.1641H297.737L301.256 82.1465Z" fill="#22053D"></path> <path d="M318.895 75.7362C318.895 74.2576 317.786 73.4868 315.988 73.4868C314.478 73.4868 313.114 74.1309 312.071 74.9652L310.623 72.6843C311.794 71.6706 313.771 70.8047 316.211 70.8047C319.887 70.8047 321.98 72.8426 321.98 75.7994V85.0922H318.895V83.635C318.092 84.9339 316.36 85.4512 314.912 85.4512C311.732 85.4512 309.883 83.635 309.883 81.069C309.883 78.3549 311.794 76.8133 314.912 76.8133H317.902C318.61 76.8133 318.895 76.507 318.895 75.9474V75.7362ZM318.895 79.9918V78.7878C318.621 78.999 318.125 79.0942 317.414 79.0942H315.565C313.928 79.0942 313.095 79.8018 313.095 80.9738C313.095 82.0509 313.898 83.0437 315.565 83.0437C317.29 83.0437 318.895 82.1461 318.895 79.9918Z" fill="#22053D"></path> <path d="M334.261 74.9334C333.215 73.9198 331.672 73.4233 330.615 73.4233C329.411 73.4233 328.798 74.0675 328.798 74.7222C328.798 75.4933 329.137 75.8628 330.097 76.2006L332.507 77.0351C335.096 77.9325 336.183 79.3477 336.183 81.0795C336.183 83.2969 334.483 85.4618 330.997 85.4618C328.714 85.4618 326.464 84.5327 325.133 83.2761L326.949 80.9001C327.996 81.9455 329.633 82.7162 330.932 82.7162C332.168 82.7162 332.971 82.1884 332.971 81.3542C332.971 80.4565 332.54 80.0867 330.997 79.5694L328.682 78.7669C326.738 78.0911 325.661 76.6336 325.661 74.9123C325.661 72.8743 327.416 70.8047 330.753 70.8047C332.39 70.8047 334.578 71.4488 336.037 72.8109L334.261 74.9334Z" fill="#22053D"></path> <path d="M169.579 116.572H165.437L163.123 114.038C161.792 115.886 159.848 116.942 157.164 116.942C153.339 116.942 150.867 114.228 150.867 111.05C150.867 108.547 152.23 106.488 154.607 104.566C153.16 102.781 152.727 101.514 152.727 100.004C152.727 96.4553 155.632 94.6709 158.495 94.6709C161.211 94.6709 163.895 96.2759 163.895 99.4861C163.895 100.289 163.704 101.25 163.123 102.137L160.44 101.64C160.746 100.933 160.936 100.31 160.936 99.8242C160.936 98.3775 159.859 97.3847 158.495 97.3847C156.763 97.3847 155.843 98.5887 155.843 99.9825C155.843 101.091 156.372 102.2 157.692 103.721C159.573 105.843 162.479 108.969 162.817 109.339C163.683 107.829 164.391 106.129 164.793 104.988H168.279C167.349 107.459 166.082 109.74 164.972 111.556L169.568 116.467V116.572H169.579ZM156.34 106.73C154.734 108.399 154.121 109.508 154.121 111.018C154.121 112.961 155.727 114.133 157.365 114.133C158.759 114.133 160.27 113.394 161.073 111.915L156.34 106.73Z" fill="#22053D"></path> <path d="M183.761 97.0996V102.718H187.036V105.252H183.761V113.056C183.761 114.017 184.469 114.196 185.177 114.196C186.254 114.196 187.057 114.07 187.057 114.07V116.636C187.057 116.636 185.546 116.794 184.405 116.794C182.736 116.794 180.665 116.456 180.665 113.742V105.262H178.383V102.728H180.676V97.1102H183.761V97.0996Z" fill="#22053D"></path> <path d="M203.798 110.616H192.842C193.085 112.749 194.574 114.323 196.761 114.323C198.093 114.323 199.329 113.795 200.037 112.718L203.523 112.813C202.287 115.558 199.73 117.005 196.761 117.005C192.62 117.005 189.566 113.921 189.566 109.666C189.566 105.41 192.567 102.348 196.666 102.348C200.407 102.348 203.798 104.851 203.798 110.585V110.616ZM192.831 108.367H200.333C200.174 106.582 198.727 105.03 196.687 105.03C194.627 105.03 193.201 106.392 192.831 108.367Z" fill="#22053D"></path> <path d="M213.617 114.322C215.223 114.322 216.459 113.552 217.167 112.285L219.819 113.647C218.709 115.717 216.269 117.005 213.617 117.005C209.475 117.005 206.242 113.953 206.242 109.687C206.242 105.399 209.486 102.337 213.617 102.337C216.269 102.337 218.709 103.636 219.819 105.705L217.167 107.068C216.459 105.801 215.223 105.03 213.617 105.03C211.081 105.03 209.359 107.036 209.359 109.687C209.359 112.337 211.092 114.322 213.617 114.322Z" fill="#22053D"></path> <path d="M226.19 103.52C226.19 103.921 226.19 104.164 226.159 104.449C227.332 103.087 228.938 102.348 230.702 102.348C233.977 102.348 235.89 104.386 235.89 107.564V116.635H232.805V107.997C232.805 106.023 231.6 105.093 230.058 105.093C228.726 105.093 227.437 105.769 226.264 107.131V116.635H223.211V102.717H226.201V103.52H226.19Z" fill="#22053D"></path> <path d="M246.684 102.348C250.794 102.348 254.122 105.4 254.122 109.666C254.122 113.921 250.783 117.005 246.684 117.005C242.574 117.005 239.277 113.921 239.277 109.666C239.277 105.4 242.584 102.348 246.684 102.348ZM246.684 105.03C244.148 105.03 242.394 107.005 242.394 109.655C242.394 112.306 244.159 114.312 246.684 114.312C249.22 114.312 250.974 112.306 250.974 109.655C250.984 107.005 249.22 105.03 246.684 105.03Z" fill="#22053D"></path> <path d="M260.829 95.0293H257.777V116.625H260.829V95.0293Z" fill="#22053D"></path> <path d="M271.888 102.348C275.998 102.348 279.325 105.4 279.325 109.666C279.325 113.921 275.987 117.005 271.888 117.005C267.777 117.005 264.48 113.921 264.48 109.666C264.48 105.4 267.787 102.348 271.888 102.348ZM271.888 105.03C269.351 105.03 267.597 107.005 267.597 109.655C267.597 112.306 269.362 114.312 271.888 114.312C274.423 114.312 276.177 112.306 276.177 109.655C276.188 107.005 274.423 105.03 271.888 105.03Z" fill="#22053D"></path> <path d="M296.686 102.717V117.744C296.686 119.909 295.607 122 292.3 122H286.468V119.465H291.836C292.671 119.465 293.601 119.244 293.601 117.987V114.555C292.861 115.917 290.98 116.931 288.941 116.931C284.926 116.931 281.957 113.911 281.957 109.655C281.957 105.368 284.863 102.337 288.908 102.337C290.947 102.337 292.861 103.382 293.631 104.776C293.631 104.47 293.601 104.132 293.601 103.699V102.706H296.686V102.717ZM289.407 114.322C291.964 114.322 293.726 112.316 293.726 109.666C293.726 106.983 291.964 104.977 289.407 104.977C286.87 104.977 285.115 106.983 285.115 109.666C285.105 112.316 286.87 114.322 289.407 114.322Z" fill="#22053D"></path> <path d="M304.901 116.636H301.816V105.242H299.715V102.707H304.901V116.636ZM303.169 95.5264C304.373 95.5264 305.357 96.5189 305.357 97.7229C305.357 98.9266 304.373 99.8772 303.169 99.8772C301.965 99.8772 301.003 98.9266 301.003 97.7229C301.013 96.5189 301.965 95.5264 303.169 95.5264Z" fill="#22053D"></path> <path d="M317.316 107.279C317.316 105.801 316.208 105.03 314.41 105.03C312.9 105.03 311.536 105.674 310.49 106.508L309.045 104.227C310.216 103.214 312.192 102.348 314.632 102.348C318.309 102.348 320.402 104.386 320.402 107.343V116.635H317.316V115.189C316.514 116.487 314.782 117.005 313.334 117.005C310.154 117.005 308.305 115.189 308.305 112.622C308.305 109.909 310.216 108.367 313.334 108.367H316.324C317.032 108.367 317.316 108.061 317.316 107.501V107.279ZM317.316 111.545V110.342C317.043 110.553 316.546 110.648 315.836 110.648H313.987C312.35 110.648 311.515 111.355 311.515 112.528C311.515 113.605 312.32 114.597 313.987 114.597C315.711 114.597 317.316 113.7 317.316 111.545Z" fill="#22053D"></path> </svg> 