<?xml version="1.0" encoding="UTF-8"?> <!-- Generator: Adobe Illustrator 26.0.2, SVG Export Plug-In . SVG Version: 6.00 Build 0) --> <svg xmlns="http://www.w3.org/2000/svg" xmlns:xlink="http://www.w3.org/1999/xlink" id="Camada_1" x="0px" y="0px" viewBox="0 0 1280 416" style="enable-background:new 0 0 1280 416;" xml:space="preserve"> <style type="text/css"> .st0{fill-rule:evenodd;clip-rule:evenodd;} .st1{fill:#DDE460;} .st2{fill:#A7DCDA;} .st3{fill:#F6DF3F;} </style> <g> <g> <path class="st0" d="M810,239.2l8.8-41.4c10.6,0,27.2-1.5,34.5,5.9c2.5,2.6,4.2,5.4,4.2,9.6c0,10.6-4.8,18.7-14.2,22.5 C833.4,239.8,823.5,239.2,810,239.2L810,239.2z M831.7,180.2h-9.1c0-1.4,1.4-7.5,1.8-9.4l5.8-28.5c10,0,22.1-1.1,29.9,2.9 c6,3.1,6.7,7.2,6.7,12.9c0,8.3-5.3,14.7-10.8,17.6C849,179.5,842.3,180.2,831.7,180.2L831.7,180.2z M778.3,257.1h47.2 c21.7,0,45.5-4.3,56.3-21.2c8.2-12.9,9.4-35.3-8.4-44c-2.3-1.1-4-1.9-6.4-2.7l-2.5-0.8c5-0.4,13.4-4.3,17.8-7.5 c0.9-0.7,1.4-1.1,2.3-1.8c2.7-2.3,2-1.7,4.2-4.3c3.4-3.9,5.7-9.4,6.8-14.6c1.6-7.9,1-16.9-4.5-23.4c-7.9-9.4-20.7-12.4-34.5-12.4 H807c-1,0-0.8,0.5-1,1.4l-3.1,14.6c-3.2,16.4-7.4,33.6-10.7,50l-12.4,58c-0.3,1.6-0.6,2.5-0.9,4.1 C778.7,254.3,778.3,255.2,778.3,257.1L778.3,257.1z"></path> <path class="st0" d="M707.6,240.4c-9.9,0-13.2-5.9-13.2-15.6c0-14.6,5.6-25.9,12.1-34.2c6.8-8.6,18.9-16.5,30.1-16.5h3.8 c2.4,0,3.6,0.8,5.6,0.9c0,1.6-7,29.3-7.6,31.1c-1,3.2-2.3,6.7-3.6,9.6c-3.4,7.6-7.2,13.9-13.1,19.2 C718.4,237.8,712.5,240.4,707.6,240.4L707.6,240.4z M695.9,257.1c8,0,14.8-1.6,21.4-5c7.3-3.7,13.2-12,14.1-12.6 c-0.1,1.5-1,4.4-1.4,5.9c-0.5,2.1-1,4.2-1.5,6.2c-1.1,4.3-2.2,7.7-3.9,11.4c-5.8,12.9-15.7,18.8-29.1,20.2c-3.6,0.4-7.2,0-10.8,0 c-3.9,0-9.8-1.3-13.1-2.2c-2-0.6-3.9-1.3-5.7-2c-0.9-0.4-1.6-0.8-2.6-1.2c-0.9-0.4-1.7-1-2.7-1.1c0,1.2-0.9,3.8-1.2,5l-4.1,14.7 l7.5,2.2c19.9,5,46.1,5.3,64.5-3.9c9.3-4.6,16.2-12.5,20.8-21.7c7.2-14.5,9.4-27.9,13-43.6l10.3-46.3c0.5-2.3,5-21.4,5-23.4 c-5.3-2.6-26-4.4-32-4.4c-8.3,0-16.7,1.4-23.1,3.3c-11.5,3.4-21.2,8.1-30.5,15.6c-2.5,2.1-6.4,5.4-8.4,8l-3.1,3.6 c-5.6,7.3-9.7,14.9-12.1,24.5C660.9,235.4,668.5,257.1,695.9,257.1L695.9,257.1z"></path> <path class="st0" d="M474.1,188.4c2.5-10.7,4.6-22.2,7.2-33c0.5-2,2.2-9.8,2.2-11.3c11.8,0,28.4-1.9,35.5,9.1 c4.4,6.9,1.8,17.9-1.2,22.5C508.9,189.4,491.4,188.4,474.1,188.4L474.1,188.4z M430.6,257.1h29l9-42.6c0.4-1.9,1.2-4.5,1.3-6.4 c24,0,46,2.3,64.3-12.3c10.2-8.2,16.7-21.2,16.7-35.2c0-8.6-1-14.1-6-21c-2.1-2.9-3.2-3.8-5.7-6.1c-2.1-1.8-4.6-3.4-7.1-4.7 c-11.6-6.1-28-4.4-42.3-4.4c-10.4,0-20.7,0-31.1,0c-0.2,2.2-16.3,76.3-17.6,82.7c-1.1,5.5-2.5,11-3.6,16.7l-5.3,24.7 c-0.3,1.2-0.6,2.7-0.9,4.1C431.2,253.6,430.7,255.9,430.6,257.1L430.6,257.1z"></path> <path class="st0" d="M1163.5,197.8 M1238.3,157.3L1238.3,157.3l-21.8,19.9c-2.7,2.4-7,6.8-9.3,8.6l-18.5,16.7 c3.6,6.8,9.7,16.8,13.8,24l5.9,10.2c3.7,6.7,8.1,13.7,11.6,20.3h-31.7c-0.4-1.9-2.4-4.8-3.3-6.6l-8.5-16.4c-0.6-1.2-1-2-1.6-3.1 l-5.1-9.9c-1.2-2.3-7.8-15.3-8.5-15.8c0,1.4-2.3,11.5-2.6,13.2c-2.5,12.1-5.2,27.2-7.9,38.7c-8.4,0-16.9-0.1-25.2,0 c-3.5,0-2.5,0-1.9-3.1c3.8-18.8,8.3-38.2,12-56.9l17.5-83.2h27.6c0,1.6-5.8,28.7-6.5,31.7c-0.7,3.4-1.5,6.8-2.2,10.4 c-0.9,4.6-8.6,40-8.6,41.8l40.7-38.8c2.3-2.2,1-1.7,5.3-1.7C1219.1,157.4,1228.7,157.3,1238.3,157.3L1238.3,157.3z"></path> <path class="st0" d="M618.1,234.2L618.1,234.2C618.2,234.3,618.1,234.2,618.1,234.2L618.1,234.2z M592.6,240.7 c-10.4,0-13.5-7.2-13.5-17c0-13.9,6.3-26,12.6-33.8c2.7-3.3,3.5-3.6,5.7-5.7c1.9-1.8,4.4-3.6,6.8-5c5.7-3.4,11.4-5.4,19.6-5.4 c2.3,0,5.2,0.4,6.8,1.2c0,1.3-0.8,4.2-1.1,5.3c-3,11.7-4.9,24.6-10,35.1l-8.4,14.1c-3.5,4-7.1,8-12.6,10 C597,239.9,594.2,240.7,592.6,240.7L592.6,240.7z M578.8,259.1c10.5,0,17-2.1,25.2-7.9c2.9-2.1,5.4-4.9,7.7-7.6 c1.3-1.4,2.1-2.8,3.3-4.4c0.7-0.9,0.9-1.4,1.5-2.3c0.5-0.8,0.9-1.8,1.6-2.2c0,1.8-0.6,4-0.9,5.8l-2.3,14.4 c-0.2,1.3-0.6,1.9,0.9,2.1l27,0c0.4-1.8,0.3-4.7,0.5-6.5l0.6-6.7c1.9-16.7,8.5-43,12.1-60l5.2-23.8c0-0.6-2.1-1-2.7-1.1 c-3.6-1-6.1-1.4-9.7-2l-10.2-1.3c-12.3-0.6-19.6-0.8-31.7,2.3c-11.2,2.9-22,8.4-31,15.7c-4.4,3.6-8.1,7.3-11.7,11.8 c-4.6,5.7-8.5,13.1-10.9,20.2c-0.7,1.9-1.3,4.2-1.7,6.2c-1,4.7-1.4,8.9-1.8,14c-0.3,3.2,0.8,10.7,1.8,13.7 c1.4,4.4,2.8,6.8,5.4,10.1C561.7,255.7,570.8,259.1,578.8,259.1L578.8,259.1z"></path> <path class="st0" d="M942.3,240.7c-8.6,0-13.8-5.3-13.8-14.4c0-12.4,2.2-20.3,8.2-30.3c0.8-1.3,1.4-2.1,2.2-3.3l5.2-6.2 c3-2.9,6.1-5.4,9.7-7.6c5.5-3.2,11.4-5.1,19.2-5.1c2.3,0,5.2,0.4,6.7,1.2c-0.1,1.4-0.8,3.9-1.2,5.3c-0.4,1.8-0.8,3.4-1.2,5.2 c-2.7,11.2-4,19.2-8.8,30c-4.2,9.4-11.2,20.1-21.1,24.1C946.7,239.8,943.5,240.7,942.3,240.7L942.3,240.7z M899.2,227.2 c0,18.4,10.5,32,29,32c11,0,17.9-2.5,25.2-8c3.1-2.3,5.2-4.7,7.7-7.5c1.2-1.4,2.2-2.8,3.3-4.4l3.1-4.8c0,2.3-3.5,18.6-3.5,22.6 h28.2c0-1.6,0.2-1.9,0.3-3.2c0.4-7.8,1.1-14.8,2.6-22.6c1.6-8.2,3.3-15.9,5.1-23.9l9.8-44.4c0.2-1.1,0.6-2,0.6-3.2 c-3.4-1.6-16.2-3.6-19.7-3.8c-5.4-0.4-5.3-0.5-11.2-0.6c-1.4,0-1.7-0.3-2.6-0.3l-8.2,0.5c-15.8,1.4-35.9,9.7-47,20.8 c-0.7,0.7-0.9,0.7-1.6,1.3l-8.2,9.4c-4.8,6.7-7.1,11.4-9.8,19.5C900.5,212,899.2,219.9,899.2,227.2L899.2,227.2z"></path> <path class="st0" d="M1054.9,174.3 M1054.9,174.3c0-2.6,2.6-15.2,2.6-17l-25,0c-1.1,0.1-1,0.1-1.2,1.2c-1.4,10.1-2,13.1-4.1,23.2 l-6.3,30.1c-1.1,5.1-2.2,9.9-3.2,15c-1,4.9-2.2,10-3.2,15c-0.5,2.5-1,4.9-1.6,7.5l-1.6,7.8h27.9l2.5-11.9c0.4-2.1,0.8-3.8,1.2-5.8 l3.8-17.9c2.2-9.4,4.6-26,9-34.1c2-3.7,2.3-3.7,4.4-6.2l3.8-3.5c9.2-6.2,24.2-5.4,25.2,7.3c0.5,6.3-5.1,28.7-6.7,36.4l-7.4,35.7 h27.6l13-61.5c1.4-6.5,3.1-14.3,1.6-22c-2.1-10.5-9.8-16-19.6-17.7c-10.4-1.8-22.4,0.4-30.4,5.9c-4.8,3.3-8.1,7.2-11.6,11.6 C1055.4,173.8,1055.2,174,1054.9,174.3L1054.9,174.3z"></path> </g> <g> <path d="M360.7,145.1C325.6,60.3,228.6,19.9,144,55C59.5,90.2,19.3,187.4,54.4,272.3c35.1,84.8,132.1,125.2,216.6,90.1 C355.6,327.2,395.7,230,360.7,145.1L360.7,145.1z"></path> <path d="M267.1,64.7C187.8,31.8,96.9,69.6,64,149.1c-32.9,79.5,4.8,170.7,84,203.6c79.3,32.9,170.2-4.9,203.1-84.4 C384,188.8,346.3,97.6,267.1,64.7z"></path> <path class="st1" d="M345.3,186.2c0-76.4-61.7-138.3-137.8-138.3c-76.1,0-137.8,61.9-137.8,138.3c0,76.4,61.7,138.3,137.8,138.3 C283.6,324.5,345.3,262.5,345.3,186.2z"></path> <path d="M207.5,328.1c-79,0-143-64.3-143-143.6c0-79.3,64-143.6,143-143.6s143,64.3,143,143.6 C350.5,263.8,286.5,328.1,207.5,328.1z M207.5,51.6c-53.7,0-102,32.5-122.5,82.2c-20.5,49.8-9.1,107.1,28.8,145.1 c38,38.1,95,49.4,144.6,28.7c49.5-20.7,81.8-69.3,81.7-123.1c0-73.5-59.4-133.1-132.6-133.2V51.6z"></path> <path class="st2" d="M298.8,249.5c0-63.4-51.2-114.8-114.4-114.8c-63.2,0-114.4,51.4-114.4,114.8c0,63.4,51.2,114.8,114.4,114.8 C247.6,364.3,298.8,312.9,298.8,249.5L298.8,249.5z"></path> <path d="M184.7,369.5c-8.5,0-17-0.9-25.3-2.7C94.8,353,53.7,289.2,67.6,224.4c13.8-64.8,77.4-106.1,141.9-92.2 c64.6,13.9,105.7,77.7,91.9,142.5c-11.8,55.2-60.3,94.7-116.5,94.9H184.7z M184.4,139.9c-57.3,0-104.9,44.5-108.9,101.9 c-4,57.4,36.9,108.2,93.6,116.2c56.8,8.1,110.1-29.3,122.1-85.6c6.9-32.4-1.1-66.1-21.9-91.9C248.7,154.9,217.4,139.9,184.4,139.9 L184.4,139.9z"></path> <path class="st3" d="M355.3,254.3c0-39.3-31.8-71.2-71-71.2c-39.2,0-71,31.9-71,71.2c0,39.4,31.8,71.2,71,71.2 C323.5,325.6,355.3,293.7,355.3,254.3L355.3,254.3z"></path> <path d="M284.4,330.8c-42.1,0-76.1-34.2-76.1-76.4c0-42.2,34.1-76.4,76.1-76.4c42.1,0,76.2,34.2,76.2,76.4 C360.5,296.5,326.4,330.7,284.4,330.8z M284.4,188.3c-26.6,0-50.6,16.1-60.8,40.8c-10.2,24.7-4.6,53.1,14.3,72 c18.8,18.9,47.1,24.5,71.7,14.3c24.6-10.2,40.6-34.3,40.6-61.1C350.1,217.9,320.7,188.4,284.4,188.3z"></path> </g> </g> </svg> 