<?xml version="1.0" encoding="UTF-8"?> <!-- Generator: Adobe Illustrator 26.0.2, SVG Export Plug-In . SVG Version: 6.00 Build 0) --> <svg xmlns="http://www.w3.org/2000/svg" xmlns:xlink="http://www.w3.org/1999/xlink" id="Layer_1" x="0px" y="0px" viewBox="0 0 20 20" style="enable-background:new 0 0 20 20;" xml:space="preserve"> <style type="text/css"> .st0{clip-path:url(#SVGID_00000098196364874885710370000000682962116564295578_);} .st1{fill-rule:evenodd;clip-rule:evenodd;fill:#FE9E76;} </style> <g> <defs> <rect id="SVGID_1_" width="20" height="20"></rect> </defs> <clipPath id="SVGID_00000023974985048801716400000016175119212456751270_"> <use xlink:href="#SVGID_1_" style="overflow:visible;"></use> </clipPath> <g style="clip-path:url(#SVGID_00000023974985048801716400000016175119212456751270_);"> <path class="st1" d="M8,0C3.6,0,0,3.6,0,8v4c0,4.4,3.6,8,8,8h4c4.4,0,8-3.6,8-8V8c0-4.4-3.6-8-8-8H8z M10,13c1.7,0,3-1.3,3-3 c0-1.7-1.3-3-3-3c-1.7,0-3,1.3-3,3C7,11.7,8.3,13,10,13z"></path> </g> </g> </svg> 